<mxfile host="app.diagrams.net" agent="Mozilla/5.0 (Macintosh; Intel Mac OS X 10.15; rv:128.0) Gecko/20100101 Firefox/128.0" version="26.1.1">
  <diagram id="1thblXxpNY6M7nEOYOyI" name="Page-4">
    <mxGraphModel grid="1" page="1" gridSize="10" guides="1" tooltips="1" connect="1" arrows="1" fold="1" pageScale="1" pageWidth="850" pageHeight="1100" math="0" shadow="0">
      <root>
        <mxCell id="0" />
        <mxCell id="1" parent="0" />
        <mxCell id="abfoJBC-1PlhaeMc-u0i-1" value="" style="ellipse;whiteSpace=wrap;html=1;aspect=fixed;fillColor=#000000;strokeColor=#000000;" vertex="1" parent="1">
          <mxGeometry x="50" y="80" width="20" height="20" as="geometry" />
        </mxCell>
        <mxCell id="abfoJBC-1PlhaeMc-u0i-2" value="User on Profile Page" style="rounded=1;whiteSpace=wrap;html=1;" vertex="1" parent="1">
          <mxGeometry x="120" y="70" width="150" height="40" as="geometry" />
        </mxCell>
        <mxCell id="abfoJBC-1PlhaeMc-u0i-3" value="Display Menu Options" style="rounded=1;whiteSpace=wrap;html=1;" vertex="1" parent="1">
          <mxGeometry x="120" y="300" width="150" height="40" as="geometry" />
        </mxCell>
        <mxCell id="abfoJBC-1PlhaeMc-u0i-4" value="Select Option?" style="rhombus;whiteSpace=wrap;html=1;" vertex="1" parent="1">
          <mxGeometry x="710" y="290" width="130" height="60" as="geometry" />
        </mxCell>
        <mxCell id="abfoJBC-1PlhaeMc-u0i-5" value="Return to Menu" style="rounded=1;whiteSpace=wrap;html=1;" vertex="1" parent="1">
          <mxGeometry x="330" y="1350" width="120" height="40" as="geometry" />
        </mxCell>
        <mxCell id="abfoJBC-1PlhaeMc-u0i-6" value="" style="ellipse;whiteSpace=wrap;html=1;aspect=fixed;strokeWidth=3;fillColor=#FFFFFF;strokeColor=#000000;" vertex="1" parent="1">
          <mxGeometry x="1615" y="890" width="30" height="30" as="geometry" />
        </mxCell>
        <mxCell id="abfoJBC-1PlhaeMc-u0i-7" value="[Manually Assign Task]" style="text;whiteSpace=wrap;html=1;resizable=0;" parent="1">
          <mxGeometry relative="1" as="geometry" />
        </mxCell>
        <mxCell id="abfoJBC-1PlhaeMc-u0i-8" value="Select TAs" style="rounded=1;whiteSpace=wrap;html=1;" vertex="1" parent="1">
          <mxGeometry x="110" y="600" width="100" height="40" as="geometry" />
        </mxCell>
        <mxCell id="abfoJBC-1PlhaeMc-u0i-9" value="Create Task Record" style="rounded=1;whiteSpace=wrap;html=1;" vertex="1" parent="1">
          <mxGeometry x="100" y="900" width="120" height="40" as="geometry" />
        </mxCell>
        <mxCell id="abfoJBC-1PlhaeMc-u0i-10" value="Task Assigned &amp; Notification Sent" style="rounded=1;whiteSpace=wrap;html=1;" vertex="1" parent="1">
          <mxGeometry x="70" y="1130" width="180" height="40" as="geometry" />
        </mxCell>
        <mxCell id="abfoJBC-1PlhaeMc-u0i-11" value="[Submit Incomplete Task]" style="text;whiteSpace=wrap;html=1;resizable=0;" parent="1">
          <mxGeometry relative="1" as="geometry" />
        </mxCell>
        <mxCell id="abfoJBC-1PlhaeMc-u0i-12" value="TA Edits or Completes Task" style="rounded=1;whiteSpace=wrap;html=1;" vertex="1" parent="1">
          <mxGeometry x="410" y="630" width="160" height="40" as="geometry" />
        </mxCell>
        <mxCell id="abfoJBC-1PlhaeMc-u0i-13" value="Is Task Complete?" style="rhombus;whiteSpace=wrap;html=1;" vertex="1" parent="1">
          <mxGeometry x="660" y="620" width="120" height="60" as="geometry" />
        </mxCell>
        <mxCell id="abfoJBC-1PlhaeMc-u0i-14" value="Submit for Approval" style="rounded=1;whiteSpace=wrap;html=1;" vertex="1" parent="1">
          <mxGeometry x="655" y="860" width="130" height="40" as="geometry" />
        </mxCell>
        <mxCell id="abfoJBC-1PlhaeMc-u0i-15" value="Instructor Approves or Rejects" style="rounded=1;whiteSpace=wrap;html=1;" vertex="1" parent="1">
          <mxGeometry x="630" y="1080" width="180" height="40" as="geometry" />
        </mxCell>
        <mxCell id="abfoJBC-1PlhaeMc-u0i-16" value="[Proctor Swap]" style="text;whiteSpace=wrap;html=1;resizable=0;" parent="1">
          <mxGeometry relative="1" as="geometry" />
        </mxCell>
        <mxCell id="abfoJBC-1PlhaeMc-u0i-17" value="TA Chooses Another TA" style="rounded=1;whiteSpace=wrap;html=1;" vertex="1" parent="1">
          <mxGeometry x="820" y="710" width="160" height="40" as="geometry" />
        </mxCell>
        <mxCell id="abfoJBC-1PlhaeMc-u0i-18" value="Second TA Accepts?" style="rhombus;whiteSpace=wrap;html=1;" vertex="1" parent="1">
          <mxGeometry x="835" y="1220" width="130" height="60" as="geometry" />
        </mxCell>
        <mxCell id="abfoJBC-1PlhaeMc-u0i-19" value="Update Workloads &amp; Notify" style="rounded=1;whiteSpace=wrap;html=1;" vertex="1" parent="1">
          <mxGeometry x="810" y="1420" width="180" height="40" as="geometry" />
        </mxCell>
        <mxCell id="abfoJBC-1PlhaeMc-u0i-20" value="Swap Request Rejected" style="rounded=1;whiteSpace=wrap;html=1;" vertex="1" parent="1">
          <mxGeometry x="1205" y="1230" width="160" height="40" as="geometry" />
        </mxCell>
        <mxCell id="abfoJBC-1PlhaeMc-u0i-21" value="[Request Leave]" style="text;whiteSpace=wrap;html=1;resizable=0;" parent="1">
          <mxGeometry relative="1" as="geometry" />
        </mxCell>
        <mxCell id="abfoJBC-1PlhaeMc-u0i-22" value="Enter Leave Details" style="rounded=1;whiteSpace=wrap;html=1;" vertex="1" parent="1">
          <mxGeometry x="1230" y="600" width="140" height="40" as="geometry" />
        </mxCell>
        <mxCell id="abfoJBC-1PlhaeMc-u0i-23" value="System Checks Conflicts" style="rounded=1;whiteSpace=wrap;html=1;" vertex="1" parent="1">
          <mxGeometry x="1220" y="700" width="160" height="40" as="geometry" />
        </mxCell>
        <mxCell id="abfoJBC-1PlhaeMc-u0i-24" value="Approve or Reject by Chair?" style="rhombus;whiteSpace=wrap;html=1;" vertex="1" parent="1">
          <mxGeometry x="1220" y="780" width="160" height="60" as="geometry" />
        </mxCell>
        <mxCell id="abfoJBC-1PlhaeMc-u0i-25" value="TA Marked Unavailable" style="rounded=1;whiteSpace=wrap;html=1;" vertex="1" parent="1">
          <mxGeometry x="1080" y="950" width="150" height="40" as="geometry" />
        </mxCell>
        <mxCell id="abfoJBC-1PlhaeMc-u0i-26" value="Leave Denied" style="rounded=1;whiteSpace=wrap;html=1;" vertex="1" parent="1">
          <mxGeometry x="1240" y="1040" width="120" height="40" as="geometry" />
        </mxCell>
        <mxCell id="abfoJBC-1PlhaeMc-u0i-27" value="[Logout]" style="text;whiteSpace=wrap;html=1;resizable=0;" parent="1">
          <mxGeometry relative="1" as="geometry" />
        </mxCell>
        <mxCell id="abfoJBC-1PlhaeMc-u0i-28" value="Session Ended - Server &amp; Client" style="rounded=1;whiteSpace=wrap;html=1;" vertex="1" parent="1">
          <mxGeometry x="1530" y="700" width="200" height="40" as="geometry" />
        </mxCell>
        <mxCell id="abfoJBC-1PlhaeMc-u0i-29" style="endArrow=block;" edge="1" parent="1" source="abfoJBC-1PlhaeMc-u0i-1" target="abfoJBC-1PlhaeMc-u0i-2">
          <mxGeometry relative="1" as="geometry" />
        </mxCell>
        <mxCell id="abfoJBC-1PlhaeMc-u0i-30" style="endArrow=block;" edge="1" parent="1" source="abfoJBC-1PlhaeMc-u0i-2" target="abfoJBC-1PlhaeMc-u0i-3">
          <mxGeometry relative="1" as="geometry" />
        </mxCell>
        <mxCell id="abfoJBC-1PlhaeMc-u0i-31" style="endArrow=block;" edge="1" parent="1" source="abfoJBC-1PlhaeMc-u0i-3" target="abfoJBC-1PlhaeMc-u0i-4">
          <mxGeometry relative="1" as="geometry" />
        </mxCell>
        <mxCell id="abfoJBC-1PlhaeMc-u0i-32" style="endArrow=block;" edge="1" parent="1" source="abfoJBC-1PlhaeMc-u0i-5" target="abfoJBC-1PlhaeMc-u0i-3">
          <mxGeometry relative="1" as="geometry" />
        </mxCell>
        <mxCell id="abfoJBC-1PlhaeMc-u0i-34" value="[Manually Assign Task]" style="endArrow=block;" edge="1" parent="1" source="abfoJBC-1PlhaeMc-u0i-4" target="abfoJBC-1PlhaeMc-u0i-8">
          <mxGeometry relative="1" as="geometry" />
        </mxCell>
        <mxCell id="abfoJBC-1PlhaeMc-u0i-35" style="endArrow=block;" edge="1" parent="1" source="abfoJBC-1PlhaeMc-u0i-8" target="abfoJBC-1PlhaeMc-u0i-9">
          <mxGeometry relative="1" as="geometry" />
        </mxCell>
        <mxCell id="abfoJBC-1PlhaeMc-u0i-36" style="endArrow=block;" edge="1" parent="1" source="abfoJBC-1PlhaeMc-u0i-9" target="abfoJBC-1PlhaeMc-u0i-10">
          <mxGeometry relative="1" as="geometry" />
        </mxCell>
        <mxCell id="abfoJBC-1PlhaeMc-u0i-37" style="endArrow=block;" edge="1" parent="1" source="abfoJBC-1PlhaeMc-u0i-10" target="abfoJBC-1PlhaeMc-u0i-5">
          <mxGeometry relative="1" as="geometry" />
        </mxCell>
        <mxCell id="abfoJBC-1PlhaeMc-u0i-38" value="[Submit Incomplete Task]" style="endArrow=block;strokeColor=default;edgeStyle=orthogonalEdgeStyle;" edge="1" parent="1" source="abfoJBC-1PlhaeMc-u0i-4" target="abfoJBC-1PlhaeMc-u0i-12">
          <mxGeometry relative="1" as="geometry">
            <Array as="points">
              <mxPoint x="775" y="470" />
              <mxPoint x="620" y="470" />
            </Array>
          </mxGeometry>
        </mxCell>
        <mxCell id="abfoJBC-1PlhaeMc-u0i-39" style="endArrow=block;" edge="1" parent="1" source="abfoJBC-1PlhaeMc-u0i-12" target="abfoJBC-1PlhaeMc-u0i-13">
          <mxGeometry relative="1" as="geometry" />
        </mxCell>
        <mxCell id="abfoJBC-1PlhaeMc-u0i-40" value="[yes]" style="endArrow=block;" edge="1" parent="1" source="abfoJBC-1PlhaeMc-u0i-13" target="abfoJBC-1PlhaeMc-u0i-14">
          <mxGeometry relative="1" as="geometry" />
        </mxCell>
        <mxCell id="abfoJBC-1PlhaeMc-u0i-41" value="[no]" style="endArrow=block;" edge="1" parent="1" source="abfoJBC-1PlhaeMc-u0i-13" target="abfoJBC-1PlhaeMc-u0i-5">
          <mxGeometry relative="1" as="geometry" />
        </mxCell>
        <mxCell id="abfoJBC-1PlhaeMc-u0i-42" style="endArrow=block;" edge="1" parent="1" source="abfoJBC-1PlhaeMc-u0i-14" target="abfoJBC-1PlhaeMc-u0i-15">
          <mxGeometry relative="1" as="geometry" />
        </mxCell>
        <mxCell id="abfoJBC-1PlhaeMc-u0i-43" style="endArrow=block;" edge="1" parent="1" source="abfoJBC-1PlhaeMc-u0i-15" target="abfoJBC-1PlhaeMc-u0i-5">
          <mxGeometry relative="1" as="geometry" />
        </mxCell>
        <mxCell id="abfoJBC-1PlhaeMc-u0i-44" value="[Proctor Swap]" style="endArrow=block;edgeStyle=orthogonalEdgeStyle;" edge="1" parent="1" source="abfoJBC-1PlhaeMc-u0i-4" target="abfoJBC-1PlhaeMc-u0i-17">
          <mxGeometry relative="1" as="geometry">
            <Array as="points">
              <mxPoint x="790" y="530" />
              <mxPoint x="900" y="530" />
            </Array>
          </mxGeometry>
        </mxCell>
        <mxCell id="abfoJBC-1PlhaeMc-u0i-45" style="endArrow=block;" edge="1" parent="1" source="abfoJBC-1PlhaeMc-u0i-17" target="abfoJBC-1PlhaeMc-u0i-18">
          <mxGeometry relative="1" as="geometry" />
        </mxCell>
        <mxCell id="abfoJBC-1PlhaeMc-u0i-46" value="[yes]" style="endArrow=block;" edge="1" parent="1" source="abfoJBC-1PlhaeMc-u0i-18" target="abfoJBC-1PlhaeMc-u0i-19">
          <mxGeometry relative="1" as="geometry" />
        </mxCell>
        <mxCell id="abfoJBC-1PlhaeMc-u0i-47" value="[no]" style="endArrow=block;" edge="1" parent="1" source="abfoJBC-1PlhaeMc-u0i-18" target="abfoJBC-1PlhaeMc-u0i-20">
          <mxGeometry relative="1" as="geometry" />
        </mxCell>
        <mxCell id="abfoJBC-1PlhaeMc-u0i-48" style="endArrow=block;" edge="1" parent="1" source="abfoJBC-1PlhaeMc-u0i-19" target="abfoJBC-1PlhaeMc-u0i-5">
          <mxGeometry relative="1" as="geometry" />
        </mxCell>
        <mxCell id="abfoJBC-1PlhaeMc-u0i-49" style="endArrow=block;" edge="1" parent="1" source="abfoJBC-1PlhaeMc-u0i-20" target="abfoJBC-1PlhaeMc-u0i-5">
          <mxGeometry relative="1" as="geometry" />
        </mxCell>
        <mxCell id="abfoJBC-1PlhaeMc-u0i-50" value="[Request Leave]" style="endArrow=block;edgeStyle=orthogonalEdgeStyle;" edge="1" parent="1" source="abfoJBC-1PlhaeMc-u0i-4" target="abfoJBC-1PlhaeMc-u0i-22">
          <mxGeometry relative="1" as="geometry">
            <Array as="points">
              <mxPoint x="860" y="320" />
              <mxPoint x="860" y="500" />
              <mxPoint x="1380" y="500" />
            </Array>
          </mxGeometry>
        </mxCell>
        <mxCell id="abfoJBC-1PlhaeMc-u0i-51" style="endArrow=block;" edge="1" parent="1" source="abfoJBC-1PlhaeMc-u0i-22" target="abfoJBC-1PlhaeMc-u0i-23">
          <mxGeometry relative="1" as="geometry" />
        </mxCell>
        <mxCell id="abfoJBC-1PlhaeMc-u0i-52" style="endArrow=block;" edge="1" parent="1" source="abfoJBC-1PlhaeMc-u0i-23" target="abfoJBC-1PlhaeMc-u0i-24">
          <mxGeometry relative="1" as="geometry" />
        </mxCell>
        <mxCell id="abfoJBC-1PlhaeMc-u0i-53" value="[approve]" style="endArrow=block;" edge="1" parent="1" source="abfoJBC-1PlhaeMc-u0i-24" target="abfoJBC-1PlhaeMc-u0i-25">
          <mxGeometry relative="1" as="geometry" />
        </mxCell>
        <mxCell id="abfoJBC-1PlhaeMc-u0i-54" value="[reject]" style="endArrow=block;" edge="1" parent="1" source="abfoJBC-1PlhaeMc-u0i-24" target="abfoJBC-1PlhaeMc-u0i-26">
          <mxGeometry relative="1" as="geometry" />
        </mxCell>
        <mxCell id="abfoJBC-1PlhaeMc-u0i-55" style="endArrow=block;" edge="1" parent="1" source="abfoJBC-1PlhaeMc-u0i-25" target="abfoJBC-1PlhaeMc-u0i-5">
          <mxGeometry relative="1" as="geometry" />
        </mxCell>
        <mxCell id="abfoJBC-1PlhaeMc-u0i-56" style="endArrow=block;" edge="1" parent="1" source="abfoJBC-1PlhaeMc-u0i-26" target="abfoJBC-1PlhaeMc-u0i-5">
          <mxGeometry relative="1" as="geometry" />
        </mxCell>
        <mxCell id="abfoJBC-1PlhaeMc-u0i-57" value="[Logout]" style="endArrow=block;edgeStyle=orthogonalEdgeStyle;" edge="1" parent="1" source="abfoJBC-1PlhaeMc-u0i-4" target="abfoJBC-1PlhaeMc-u0i-28">
          <mxGeometry relative="1" as="geometry">
            <Array as="points">
              <mxPoint x="1490" y="320" />
            </Array>
          </mxGeometry>
        </mxCell>
        <mxCell id="abfoJBC-1PlhaeMc-u0i-58" style="endArrow=block;" edge="1" parent="1" source="abfoJBC-1PlhaeMc-u0i-28" target="abfoJBC-1PlhaeMc-u0i-6">
          <mxGeometry relative="1" as="geometry" />
        </mxCell>
      </root>
    </mxGraphModel>
  </diagram>
</mxfile>
